<?xml version="1.0" encoding="UTF-8"?>
<svg version="1.1" xmlns="http://www.w3.org/2000/svg" width="16" height="16">
<path d="M0 0 C5.28 0 10.56 0 16 0 C16 5.28 16 10.56 16 16 C10.72 16 5.44 16 0 16 C0 10.72 0 5.44 0 0 Z " fill="#4F5450" transform="translate(0,0)"/>
<path d="M0 0 C3.3 0 6.6 0 10 0 C10 4.62 10 9.24 10 14 C7.03 14 4.06 14 1 14 C0.67 9.38 0.34 4.76 0 0 Z " fill="#545A56" transform="translate(5,1)"/>
<path d="M0 0 C1.65 0 3.3 0 5 0 C4.01 0.495 4.01 0.495 3 1 C3 2.65 3 4.3 3 6 C3.66 6.33 4.32 6.66 5 7 C4.34 7 3.68 7 3 7 C2.67 8.32 2.34 9.64 2 11 C1.67 11 1.34 11 1 11 C0.67 7.37 0.34 3.74 0 0 Z " fill="#A9ACAA" transform="translate(5,2)"/>
</svg>
